<svg width="417" height="396" viewBox="0 0 417 396" fill="none" xmlns="http://www.w3.org/2000/svg">
<g opacity="0.7">
<path fill-rule="evenodd" clip-rule="evenodd" d="M366.883 71.8958C385.052 90.0551 377.27 135.94 367.929 174.875C359.681 209.254 340.72 240.676 319.479 269.489C297.837 298.845 274.242 326.843 248.472 336.914C220.149 347.983 190.549 348.869 176.661 325.305C163.218 302.497 171.607 261.051 181.746 223.699C190.165 192.682 207.033 164.102 227.076 139.573C245.631 116.865 266.209 104.654 287.406 94.3927C315.479 80.8033 349.182 54.2028 366.883 71.8958Z" fill="#6217BA"/>
<path fill-rule="evenodd" clip-rule="evenodd" d="M51.1997 60.5186C66.6078 37.8704 98.3158 51.946 124.853 67.5259C148.285 81.2826 168.164 109.025 185.874 139.585C203.918 170.72 220.729 204.338 224.45 239.383C228.541 277.9 225.19 317.284 206.5 333.807C188.409 349.8 159.951 335.28 134.652 318.77C113.643 305.059 95.5103 280.328 80.6977 251.709C66.9845 225.215 61.0365 196.892 56.564 167.903C50.6409 129.513 36.1873 82.5852 51.1997 60.5186Z" fill="#6217BA"/>
</g>
</svg>
