<svg width="50" height="50" viewBox="0 0 50 50" fill="none" xmlns="http://www.w3.org/2000/svg">
<path d="M4.16667 12.5001H0V22.9167H0.0208333L0 41.6668C0 43.9584 1.875 45.8334 4.16667 45.8334H41.6667V41.6668H4.16667V12.5001ZM45.8333 8.33342H29.1667L25 4.16675H12.5C10.2083 4.16675 8.35417 6.04175 8.35417 8.33342L8.33333 33.3334C8.33333 35.6251 10.2083 37.5001 12.5 37.5001H45.8333C48.125 37.5001 50 35.6251 50 33.3334V12.5001C50 10.2084 48.125 8.33342 45.8333 8.33342ZM14.5833 31.2501L23.9583 18.7501L31.25 28.1459L36.4583 21.8751L43.75 31.2501H14.5833Z" fill="#6217BA"/>
</svg>
